Sniper (1993) MultiSub DVDRip.x264.AC3 - FASTERWOLF

Sniper 1993 Sniper 1993 DVDRip.x264.AC3 - FASTERWOLFSniper (1993) MultiSub DVDRip.x264.AC3 - FASTERWOLFSniper 1993 DVDRip.x264.AC3 - FASTERWOLF.mkv
Format : Matroska
Format version : Version 2
File size : 1,41 GiB
Duration : 1h 39mn
Overall bit rate : 2 042 Kbps
Writing application : HandBrake 0.9.8
Writing library : libmkv 0.6.5

Video
ID : 1
Format : AVC
Format/Info : Advanced Video Codec
Format profile : High@L3.0
Format settings, CABAC : ╬¥╬▒╬╣
Format settings, ReFrames : 5 frame
Codec ID : V_MPEG4/ISO/AVC
Duration : 1h 39mn
Bit rate : 1 590 Kbps
Width : 720 ╬╡╬╣╬║╬┐╬╜╬┐╧â╧ä╬┐╬╣╧ç╬╡╬»╬▒
Height : 384 ╬╡╬╣╬║╬┐╬╜╬┐╧â╧ä╬┐╬╣╧ç╬╡╬»╬▒
Display aspect ratio : 1,85:1
Frame rate : 23,976 fps
Color space : YUV
Chroma subsampling : 4:2:0
Bit depth : 8 bits
Scan type : ╬ú╧à╬╜╬╡╧ç╬«╧é ╧â╬¼╧ü╧ë╧â╬╖
Bits/(Pixel*Frame) : 0.240
Stream size : 1,08 GiB (76%)
Writing library : x264 core 120
Encoding settings : cabac=1 / ref=5 / deblock=1:-2:-2 / analyse=0x3:0x113 / me=umh / subme=8 / psy=1 / psy_rd=1.00:0.00 / mixed_ref=1 / me_range=16 / chroma_me=1 / trellis=2 / 8x8dct=1 / cqm=0 / deadzone=21,11 / fast_pskip=1 / chroma_qp_offset=-2 / threads=9 / sliced_threads=0 / nr=0 / decimate=0 / interlaced=0 / bluray_compat=0 / constrained_intra=0 / bframes=8 / b_pyramid=2 / b_adapt=2 / b_bias=0 / direct=1 / weightb=1 / open_gop=0 / weightp=1 / keyint=240 / keyint_min=24 / scenecut=40 / intra_refresh=0 / rc_lookahead=10 / rc=2pass / mbtree=1 / bitrate=1590 / ratetol=1.0 / qcomp=0.60 / qpmin=3 / qpmax=69 / qpstep=4 / cplxblur=20.0 / qblur=0.5 / ip_ratio=1.40 / aq=1:1.00
Language : English
Default : ╬¥╬▒╬╣
Forced : ╬î╧ç╬╣
colour_primaries : BT.601 NTSC
transfer_characteristics : BT.709
matrix_coefficients : BT.601

╬ë╧ç╬┐╧é
ID : 2
Format : AC-3
Format/Info : Audio Coding 3
Format profile : Dolby Digital
Mode extension : CM (complete main)
Format settings, Endianness : Big
Codec ID : A_AC3
Duration : 1h 39mn
Bit rate : 448 Kbps
Channel(s) : 2 ╬║╬▒╬╜╬¼╬╗╬╣╬▒
Channel positions : Front: L R
Sampling rate : 48,0 KHz
Bit depth : 16 bits
Stream size : 317 MiB (22%)
Language : English
Default : ╬¥╬▒╬╣
Forced : ╬î╧ç╬╣

╬£╬╡╬╜╬┐╧ì
00:00:00.000 : Chapter 1
00:13:08.370 : Chapter 2
00:16:05.422 : Chapter 3
00:18:40.244 : Chapter 4
00:21:46.263 : Chapter 5
00:25:37.244 : Chapter 6
00:33:33.261 : Chapter 7
00:36:04.620 : Chapter 8
00:37:29.664 : Chapter 9
00:41:23.689 : Chapter 10
00:43:16.218 : Chapter 11
00:45:13.502 : Chapter 12
00:47:00.609 : Chapter 13
00:48:44.338 : Chapter 14
00:51:38.386 : Chapter 15
00:56:53.660 : Chapter 16
00:57:55.096 : Chapter 17
01:01:46.828 : Chapter 18
01:07:34.759 : Chapter 19
01:11:03.550 : Chapter 20
01:12:07.406 : Chapter 21
01:14:46.023 : Chapter 22
01:18:38.004 : Chapter 23
01:23:28.253 : Chapter 24
01:27:46.386 : Chapter 25
01:29:34.911 : Chapter 26
01:31:54.258 : Chapter 27
01:33:00.199 : Chapter 28
01:39:01.226 : Chapter 29


Riper... FASTERWOLF

Source.........DVD

Language:English

Subtitles: Argentino,Brazilian,Danish,English,Estonian,Finnish,French,Norwegian
Polish,Portuguese,Romanian,Spanish,Swedish,Turkish